<svg width="79" height="50" viewBox="0 0 79 50" fill="none" xmlns="http://www.w3.org/2000/svg">
<path d="M14.522 7.624C14.522 8.68133 14.2793 9.652 13.794 10.536C13.3087 11.4027 12.5633 12.1047 11.558 12.642C10.5527 13.1793 9.30467 13.448 7.814 13.448H5.058V20H0.612V1.748H7.814C9.27 1.748 10.5007 1.99933 11.506 2.502C12.5113 3.00467 13.2653 3.698 13.768 4.582C14.2707 5.466 14.522 6.48 14.522 7.624ZM7.476 9.912C8.32533 9.912 8.958 9.71267 9.374 9.314C9.79 8.91533 9.998 8.352 9.998 7.624C9.998 6.896 9.79 6.33267 9.374 5.934C8.958 5.53533 8.32533 5.336 7.476 5.336H5.058V9.912H7.476ZM15.9526 12.72C15.9526 11.2293 16.2299 9.92067 16.7846 8.794C17.3566 7.66733 18.1279 6.80067 19.0986 6.194C20.0693 5.58733 21.1526 5.284 22.3486 5.284C23.3713 5.284 24.2639 5.492 25.0266 5.908C25.8066 6.324 26.4046 6.87 26.8206 7.546V5.492H31.2666V20H26.8206V17.946C26.3873 18.622 25.7806 19.168 25.0006 19.584C24.2379 20 23.3453 20.208 22.3226 20.208C21.1439 20.208 20.0693 19.9047 19.0986 19.298C18.1279 18.674 17.3566 17.7987 16.7846 16.672C16.2299 15.528 15.9526 14.2107 15.9526 12.72ZM26.8206 12.746C26.8206 11.6367 26.5086 10.7613 25.8846 10.12C25.2779 9.47867 24.5326 9.158 23.6486 9.158C22.7646 9.158 22.0106 9.47867 21.3866 10.12C20.7799 10.744 20.4766 11.6107 20.4766 12.72C20.4766 13.8293 20.7799 14.7133 21.3866 15.372C22.0106 16.0133 22.7646 16.334 23.6486 16.334C24.5326 16.334 25.2779 16.0133 25.8846 15.372C26.5086 14.7307 26.8206 13.8553 26.8206 12.746ZM48.8091 5.492V20H44.3631V18.024C43.9124 18.6653 43.2971 19.1853 42.5171 19.584C41.7544 19.9653 40.9051 20.156 39.9691 20.156C38.8598 20.156 37.8804 19.9133 37.0311 19.428C36.1818 18.9253 35.5231 18.206 35.0551 17.27C34.5871 16.334 34.3531 15.2333 34.3531 13.968V5.492H38.7731V13.37C38.7731 14.3407 39.0244 15.0947 39.5271 15.632C40.0298 16.1693 40.7058 16.438 41.5551 16.438C42.4218 16.438 43.1064 16.1693 43.6091 15.632C44.1118 15.0947 44.3631 14.3407 44.3631 13.37V5.492H48.8091ZM56.4486 0.76V20H52.0026V0.76H56.4486ZM58.7866 12.72C58.7866 11.2293 59.0639 9.92067 59.6186 8.794C60.1906 7.66733 60.9619 6.80067 61.9326 6.194C62.9033 5.58733 63.9866 5.284 65.1826 5.284C66.2053 5.284 67.0979 5.492 67.8606 5.908C68.6406 6.324 69.2386 6.87 69.6546 7.546V5.492H74.1006V20H69.6546V17.946C69.2213 18.622 68.6146 19.168 67.8346 19.584C67.0719 20 66.1793 20.208 65.1566 20.208C63.9779 20.208 62.9033 19.9047 61.9326 19.298C60.9619 18.674 60.1906 17.7987 59.6186 16.672C59.0639 15.528 58.7866 14.2107 58.7866 12.72ZM69.6546 12.746C69.6546 11.6367 69.3426 10.7613 68.7186 10.12C68.1119 9.47867 67.3666 9.158 66.4826 9.158C65.5986 9.158 64.8446 9.47867 64.2206 10.12C63.6139 10.744 63.3106 11.6107 63.3106 12.72C63.3106 13.8293 63.6139 14.7133 64.2206 15.372C64.8446 16.0133 65.5986 16.334 66.4826 16.334C67.3666 16.334 68.1119 16.0133 68.7186 15.372C69.3426 14.7307 69.6546 13.8553 69.6546 12.746ZM11.662 32.64C12.7193 32.8653 13.5687 33.394 14.21 34.226C14.8513 35.0407 15.172 35.9767 15.172 37.034C15.172 38.5593 14.6347 39.7727 13.56 40.674C12.5027 41.558 11.0207 42 9.114 42H0.612V23.748H8.828C10.6827 23.748 12.13 24.1727 13.17 25.022C14.2273 25.8713 14.756 27.024 14.756 28.48C14.756 29.5547 14.47 30.4473 13.898 31.158C13.3433 31.8687 12.598 32.3627 11.662 32.64ZM5.058 31.132H7.97C8.698 31.132 9.25267 30.976 9.634 30.664C10.0327 30.3347 10.232 29.858 10.232 29.234C10.232 28.61 10.0327 28.1333 9.634 27.804C9.25267 27.4747 8.698 27.31 7.97 27.31H5.058V31.132ZM8.334 38.412C9.07933 38.412 9.65133 38.2473 10.05 37.918C10.466 37.5713 10.674 37.0773 10.674 36.436C10.674 35.7947 10.4573 35.292 10.024 34.928C9.608 34.564 9.02733 34.382 8.282 34.382H5.058V38.412H8.334ZM22.1967 29.91C22.7167 29.1127 23.3667 28.4887 24.1467 28.038C24.9267 27.57 25.7933 27.336 26.7467 27.336V32.042H25.5247C24.4153 32.042 23.5833 32.2847 23.0287 32.77C22.474 33.238 22.1967 34.07 22.1967 35.266V42H17.7507V27.492H22.1967V29.91ZM27.9878 34.72C27.9878 33.2293 28.2651 31.9207 28.8198 30.794C29.3918 29.6673 30.1631 28.8007 31.1338 28.194C32.1044 27.5873 33.1878 27.284 34.3838 27.284C35.4064 27.284 36.2991 27.492 37.0618 27.908C37.8418 28.324 38.4398 28.87 38.8558 29.546V27.492H43.3018V42H38.8558V39.946C38.4224 40.622 37.8158 41.168 37.0358 41.584C36.2731 42 35.3804 42.208 34.3578 42.208C33.1791 42.208 32.1044 41.9047 31.1338 41.298C30.1631 40.674 29.3918 39.7987 28.8198 38.672C28.2651 37.528 27.9878 36.2107 27.9878 34.72ZM38.8558 34.746C38.8558 33.6367 38.5438 32.7613 37.9198 32.12C37.3131 31.4787 36.5678 31.158 35.6838 31.158C34.7998 31.158 34.0458 31.4787 33.4218 32.12C32.8151 32.744 32.5118 33.6107 32.5118 34.72C32.5118 35.8293 32.8151 36.7133 33.4218 37.372C34.0458 38.0133 34.7998 38.334 35.6838 38.334C36.5678 38.334 37.3131 38.0133 37.9198 37.372C38.5438 36.7307 38.8558 35.8553 38.8558 34.746ZM52.0303 27.284C53.0529 27.284 53.9456 27.492 54.7083 27.908C55.4883 28.324 56.0863 28.87 56.5023 29.546V27.492H60.9483V41.974C60.9483 43.3087 60.6796 44.5133 60.1423 45.588C59.6223 46.68 58.8163 47.5467 57.7243 48.188C56.6496 48.8293 55.3063 49.15 53.6943 49.15C51.5449 49.15 49.8029 48.6387 48.4683 47.616C47.1336 46.6107 46.3709 45.2413 46.1803 43.508H50.5743C50.7129 44.0627 51.0423 44.496 51.5623 44.808C52.0823 45.1373 52.7236 45.302 53.4863 45.302C54.4049 45.302 55.1329 45.0333 55.6703 44.496C56.2249 43.976 56.5023 43.1353 56.5023 41.974V39.92C56.0689 40.596 55.4709 41.1507 54.7083 41.584C53.9456 42 53.0529 42.208 52.0303 42.208C50.8343 42.208 49.7509 41.9047 48.7803 41.298C47.8096 40.674 47.0383 39.7987 46.4663 38.672C45.9116 37.528 45.6343 36.2107 45.6343 34.72C45.6343 33.2293 45.9116 31.9207 46.4663 30.794C47.0383 29.6673 47.8096 28.8007 48.7803 28.194C49.7509 27.5873 50.8343 27.284 52.0303 27.284ZM56.5023 34.746C56.5023 33.6367 56.1903 32.7613 55.5663 32.12C54.9596 31.4787 54.2143 31.158 53.3303 31.158C52.4463 31.158 51.6923 31.4787 51.0683 32.12C50.4616 32.744 50.1583 33.6107 50.1583 34.72C50.1583 35.8293 50.4616 36.7133 51.0683 37.372C51.6923 38.0133 52.4463 38.334 53.3303 38.334C54.2143 38.334 54.9596 38.0133 55.5663 37.372C56.1903 36.7307 56.5023 35.8553 56.5023 34.746ZM63.2807 34.72C63.2807 33.2293 63.5581 31.9207 64.1127 30.794C64.6847 29.6673 65.4561 28.8007 66.4267 28.194C67.3974 27.5873 68.4807 27.284 69.6767 27.284C70.6994 27.284 71.5921 27.492 72.3547 27.908C73.1347 28.324 73.7327 28.87 74.1487 29.546V27.492H78.5947V42H74.1487V39.946C73.7154 40.622 73.1087 41.168 72.3287 41.584C71.5661 42 70.6734 42.208 69.6507 42.208C68.4721 42.208 67.3974 41.9047 66.4267 41.298C65.4561 40.674 64.6847 39.7987 64.1127 38.672C63.5581 37.528 63.2807 36.2107 63.2807 34.72ZM74.1487 34.746C74.1487 33.6367 73.8367 32.7613 73.2127 32.12C72.6061 31.4787 71.8607 31.158 70.9767 31.158C70.0927 31.158 69.3387 31.4787 68.7147 32.12C68.1081 32.744 67.8047 33.6107 67.8047 34.72C67.8047 35.8293 68.1081 36.7133 68.7147 37.372C69.3387 38.0133 70.0927 38.334 70.9767 38.334C71.8607 38.334 72.6061 38.0133 73.2127 37.372C73.8367 36.7307 74.1487 35.8553 74.1487 34.746Z" fill="#390040"/>
</svg>
