<svg width="339" height="339" viewBox="0 0 339 339" fill="none" xmlns="http://www.w3.org/2000/svg">
<g clip-path="url(#clip0_80_2)">
<path d="M339 169.5C339.059 209.511 324.906 248.243 299.065 278.789C298.126 279.904 297.17 281 296.197 282.091C284.74 294.977 271.393 306.049 256.614 314.93C253.224 316.965 249.759 318.883 246.221 320.683C245.863 320.865 245.499 321.047 245.142 321.223C244.713 321.44 244.279 321.651 243.845 321.862C234.891 326.245 225.564 329.821 215.975 332.548C214.978 332.83 213.979 333.104 212.978 333.37C200.363 336.707 187.405 338.575 174.362 338.935C173.682 338.953 173.013 338.965 172.368 338.977C172.139 338.982 171.916 338.988 171.693 338.988C170.96 338.994 170.233 339 169.5 339C155.755 339.01 142.059 337.35 128.714 334.056C127.377 333.727 126.046 333.381 124.72 333.018C117.738 331.112 110.887 328.755 104.21 325.962C100.691 324.496 97.2347 322.914 93.8408 321.217C93.0725 320.83 92.3041 320.443 91.5476 320.044C91.225 319.886 90.9083 319.716 90.5916 319.552C72.5027 310.004 56.2812 297.277 42.7034 281.98C41.765 280.93 40.8442 279.863 39.9351 278.789C24.9749 261.052 13.8156 240.432 7.14834 218.206C0.481042 195.981 -1.55228 172.623 1.1743 149.58C3.90089 126.537 11.3293 104.299 22.9996 84.2431C34.6698 64.1874 50.3332 46.7413 69.0199 32.9851C69.9818 32.2754 70.9495 31.5716 71.929 30.8854C72.1225 30.7505 72.316 30.6156 72.5096 30.4807C89.7196 18.4257 109.036 9.70236 129.459 4.76243C130.621 4.47504 131.782 4.20525 132.955 3.95306C155.076 -0.885791 177.938 -1.28649 200.215 2.77418C201.382 2.99118 202.55 3.21406 203.711 3.45452C223.951 7.60611 243.256 15.4452 260.66 26.5804C261.048 26.8268 261.435 27.0731 261.822 27.3312C262.602 27.8355 263.382 28.3517 264.15 28.8737C287.206 44.374 306.094 65.3095 319.147 89.834C332.2 114.358 339.019 141.718 339 169.5Z" fill="#FDF0D5"/>
<path d="M126.685 257.188L72.5097 261.998L71.929 262.051V30.8854C72.1225 30.7505 72.3161 30.6156 72.5097 30.4807C83.8004 22.5832 96.014 16.0953 108.879 11.1612L111.647 49.3427L111.899 52.8383L114.638 90.703L115.483 102.351L126.585 255.839L126.685 257.188Z" fill="#CCCCCC"/>
<path d="M260.661 26.5804C261.048 26.8268 261.435 27.0731 261.822 27.3311V262.051L260.661 261.945L207.072 257.188L207.171 255.839L218.274 102.351L219.118 90.703L221.857 52.8383L222.11 49.3427L225.013 9.30197C237.533 13.6417 249.498 19.4412 260.661 26.5804Z" fill="#CCCCCC"/>
<path d="M260.661 26.5804V265.253C260.661 269.833 257.505 273.558 253.622 273.558H79.5477C76.3337 273.558 73.6064 271.001 72.7794 267.511C72.5989 266.772 72.5083 266.014 72.5096 265.253V30.4807C72.3161 30.6156 72.1226 30.7505 71.929 30.8854C70.9495 31.5716 69.9818 32.2754 69.0199 32.985V265.253C68.968 268.732 70.2673 272.096 72.6445 274.637C73.8911 275.943 75.4678 276.887 77.2076 277.37C77.9703 277.577 78.7573 277.682 79.5477 277.681H253.622C254.415 277.682 255.204 277.577 255.968 277.37C260.649 276.109 264.15 271.159 264.15 265.253V28.8736C263.382 28.3517 262.602 27.8355 261.822 27.3311C261.435 27.0731 261.048 26.8267 260.661 26.5804Z" fill="#CCCCCC"/>
<path d="M262.407 49.345H70.7649V52.84H262.407V49.345Z" fill="#CCCCCC"/>
<path d="M129.459 4.76242C130.621 4.47503 131.782 4.20525 132.955 3.95305V98.8555H129.459V4.76242Z" fill="#CCCCCC"/>
<path d="M200.215 2.77417C201.382 2.99118 202.55 3.21405 203.711 3.45452V98.8554H200.215V2.77417Z" fill="#CCCCCC"/>
<path d="M284.25 255.839H54.7444C50.5725 255.839 46.5715 257.497 43.6216 260.447C40.6716 263.397 39.0143 267.398 39.0143 271.569C39.0143 275.741 40.6716 279.742 43.6216 282.692C46.5715 285.642 50.5725 287.3 54.7444 287.3H284.25C286.484 287.3 288.692 286.824 290.727 285.902C292.762 284.981 294.577 283.636 296.05 281.956C296.717 281.197 297.31 280.377 297.821 279.505C298.217 278.837 298.56 278.138 298.848 277.417C299.806 275.031 300.164 272.446 299.891 269.889C299.617 267.332 298.721 264.881 297.28 262.751C295.839 260.621 293.898 258.877 291.626 257.672C289.354 256.467 286.821 255.838 284.25 255.839Z" fill="#CCCCCC"/>
<path d="M262.407 90.7024H71.9299V102.352H262.407V90.7024Z" fill="#CCCCCC"/>
<path d="M165.421 87.2074H168.916C169.757 87.2074 170.59 87.3731 171.368 87.6951C172.145 88.0171 172.852 88.4891 173.447 89.0841C174.042 89.6791 174.513 90.3855 174.836 91.1628C175.158 91.9402 175.323 92.7734 175.323 93.6149H159.013C159.013 91.9155 159.688 90.2857 160.89 89.0841C162.092 87.8825 163.721 87.2074 165.421 87.2074Z" fill="#CCCCCC"/>
<path d="M299.065 278.789C293.97 284.827 288.459 290.5 282.572 295.769H56.4276C50.5412 290.5 45.0302 284.827 39.9351 278.789H299.065Z" fill="#3F3D56"/>
<path d="M188.432 219.981H150.356C150.151 219.978 149.947 220.01 149.752 220.074C149.339 220.202 148.978 220.459 148.721 220.807C148.464 221.156 148.326 221.577 148.327 222.01V282.162H190.468V222.01C190.467 221.743 190.414 221.479 190.312 221.232C190.21 220.986 190.06 220.762 189.871 220.573C189.682 220.385 189.457 220.236 189.21 220.134C188.964 220.032 188.699 219.98 188.432 219.981ZM174.022 249.658C174.023 250.633 173.702 251.582 173.107 252.356C172.54 253.106 171.751 253.66 170.852 253.939C169.953 254.218 168.99 254.207 168.097 253.909C167.204 253.611 166.428 253.041 165.877 252.278C165.325 251.515 165.028 250.599 165.025 249.658V242.678C165.036 241.492 165.515 240.359 166.357 239.524C167.2 238.69 168.338 238.221 169.523 238.221C170.709 238.221 171.847 238.69 172.69 239.524C173.532 240.359 174.011 241.492 174.022 242.678V249.658Z" fill="#2F2E41"/>
<path d="M148.198 280.238V286.039C148.198 286.339 148.317 286.628 148.529 286.841C148.741 287.054 149.029 287.175 149.33 287.176H189.465C189.765 287.174 190.052 287.053 190.264 286.84C190.476 286.627 190.596 286.339 190.597 286.039V280.238H148.198Z" fill="#3F3D56"/>
<path d="M251.482 126.11H88.7265C87.3281 126.112 85.9874 126.668 84.998 127.656C84.0087 128.645 83.4513 129.985 83.4479 131.383V241.212C83.449 242.612 84.0055 243.954 84.9952 244.943C85.9849 245.933 87.3269 246.489 88.7265 246.491H251.482C252.881 246.489 254.223 245.933 255.213 244.943C256.203 243.954 256.759 242.612 256.76 241.212V131.383C256.757 129.985 256.199 128.645 255.21 127.656C254.221 126.668 252.88 126.112 251.482 126.11Z" fill="#3F3D56"/>
<path d="M250.121 129.923H90.0813C89.3326 129.924 88.6151 130.223 88.0863 130.753C87.5574 131.283 87.2603 132.001 87.2603 132.75V239.857C87.2615 240.605 87.5592 241.322 88.0879 241.851C88.6167 242.379 89.3335 242.677 90.0813 242.678H250.121C250.869 242.677 251.586 242.379 252.114 241.851C252.643 241.322 252.941 240.605 252.942 239.857V132.75C252.942 132.001 252.645 131.283 252.116 130.753C251.587 130.223 250.87 129.924 250.121 129.923Z" fill="#730071"/>
<path d="M220.667 287.083L219.189 280.062C219.127 279.776 218.996 279.509 218.805 279.287C218.614 279.065 218.371 278.894 218.098 278.789C217.9 278.712 217.689 278.672 217.476 278.672H125.213C125 278.672 124.789 278.712 124.591 278.789C124.318 278.894 124.075 279.065 123.884 279.287C123.694 279.509 123.562 279.776 123.5 280.062L122.022 287.083C121.969 287.337 121.973 287.601 122.034 287.854C122.096 288.107 122.212 288.343 122.376 288.546C122.54 288.748 122.748 288.911 122.983 289.023C123.218 289.135 123.475 289.194 123.735 289.194H218.948C219.209 289.195 219.468 289.137 219.703 289.025C219.939 288.912 220.146 288.747 220.309 288.543C220.473 288.341 220.591 288.106 220.653 287.853C220.714 287.601 220.719 287.337 220.667 287.083Z" fill="#2F2E41"/>
<path d="M128.535 279.936H126.176C126.017 279.936 125.889 280.065 125.889 280.223V281.41C125.889 281.568 126.017 281.696 126.176 281.696H128.535C128.694 281.696 128.822 281.568 128.822 281.41V280.223C128.822 280.065 128.694 279.936 128.535 279.936Z" fill="#3F3D56"/>
<path d="M134.4 279.936H132.041C131.882 279.936 131.754 280.065 131.754 280.223V281.41C131.754 281.568 131.882 281.696 132.041 281.696H134.4C134.559 281.696 134.687 281.568 134.687 281.41V280.223C134.687 280.065 134.559 279.936 134.4 279.936Z" fill="#3F3D56"/>
<path d="M140.266 279.936H137.906C137.748 279.936 137.619 280.065 137.619 280.223V281.41C137.619 281.568 137.748 281.696 137.906 281.696H140.266C140.424 281.696 140.552 281.568 140.552 281.41V280.223C140.552 280.065 140.424 279.936 140.266 279.936Z" fill="#3F3D56"/>
<path d="M146.131 279.936H143.771C143.613 279.936 143.484 280.065 143.484 280.223V281.41C143.484 281.568 143.613 281.696 143.771 281.696H146.131C146.289 281.696 146.417 281.568 146.417 281.41V280.223C146.417 280.065 146.289 279.936 146.131 279.936Z" fill="#3F3D56"/>
<path d="M151.996 279.936H149.636C149.478 279.936 149.349 280.065 149.349 280.223V281.41C149.349 281.568 149.478 281.696 149.636 281.696H151.996C152.154 281.696 152.282 281.568 152.282 281.41V280.223C152.282 280.065 152.154 279.936 151.996 279.936Z" fill="#3F3D56"/>
<path d="M157.861 279.936H155.501C155.343 279.936 155.214 280.065 155.214 280.223V281.41C155.214 281.568 155.343 281.696 155.501 281.696H157.861C158.019 281.696 158.147 281.568 158.147 281.41V280.223C158.147 280.065 158.019 279.936 157.861 279.936Z" fill="#3F3D56"/>
<path d="M163.726 279.936H161.366C161.208 279.936 161.08 280.065 161.08 280.223V281.41C161.08 281.568 161.208 281.696 161.366 281.696H163.726C163.884 281.696 164.012 281.568 164.012 281.41V280.223C164.012 280.065 163.884 279.936 163.726 279.936Z" fill="#3F3D56"/>
<path d="M169.591 279.936H167.231C167.073 279.936 166.945 280.065 166.945 280.223V281.41C166.945 281.568 167.073 281.696 167.231 281.696H169.591C169.749 281.696 169.877 281.568 169.877 281.41V280.223C169.877 280.065 169.749 279.936 169.591 279.936Z" fill="#3F3D56"/>
<path d="M175.456 279.936H173.096C172.938 279.936 172.81 280.065 172.81 280.223V281.41C172.81 281.568 172.938 281.696 173.096 281.696H175.456C175.614 281.696 175.742 281.568 175.742 281.41V280.223C175.742 280.065 175.614 279.936 175.456 279.936Z" fill="#3F3D56"/>
<path d="M181.321 279.936H178.961C178.803 279.936 178.675 280.065 178.675 280.223V281.41C178.675 281.568 178.803 281.696 178.961 281.696H181.321C181.479 281.696 181.607 281.568 181.607 281.41V280.223C181.607 280.065 181.479 279.936 181.321 279.936Z" fill="#3F3D56"/>
<path d="M187.186 279.936H184.826C184.668 279.936 184.54 280.065 184.54 280.223V281.41C184.54 281.568 184.668 281.696 184.826 281.696H187.186C187.344 281.696 187.472 281.568 187.472 281.41V280.223C187.472 280.065 187.344 279.936 187.186 279.936Z" fill="#3F3D56"/>
<path d="M193.051 279.936H190.691C190.533 279.936 190.405 280.065 190.405 280.223V281.41C190.405 281.568 190.533 281.696 190.691 281.696H193.051C193.209 281.696 193.337 281.568 193.337 281.41V280.223C193.337 280.065 193.209 279.936 193.051 279.936Z" fill="#3F3D56"/>
<path d="M198.916 279.936H196.556C196.398 279.936 196.27 280.065 196.27 280.223V281.41C196.27 281.568 196.398 281.696 196.556 281.696H198.916C199.074 281.696 199.202 281.568 199.202 281.41V280.223C199.202 280.065 199.074 279.936 198.916 279.936Z" fill="#3F3D56"/>
<path d="M204.781 279.936H202.421C202.263 279.936 202.135 280.065 202.135 280.223V281.41C202.135 281.568 202.263 281.696 202.421 281.696H204.781C204.939 281.696 205.067 281.568 205.067 281.41V280.223C205.067 280.065 204.939 279.936 204.781 279.936Z" fill="#3F3D56"/>
<path d="M210.646 279.936H208.286C208.128 279.936 208 280.065 208 280.223V281.41C208 281.568 208.128 281.696 208.286 281.696H210.646C210.804 281.696 210.933 281.568 210.933 281.41V280.223C210.933 280.065 210.804 279.936 210.646 279.936Z" fill="#3F3D56"/>
<path d="M216.511 279.936H214.151C213.993 279.936 213.865 280.065 213.865 280.223V281.41C213.865 281.568 213.993 281.696 214.151 281.696H216.511C216.669 281.696 216.798 281.568 216.798 281.41V280.223C216.798 280.065 216.669 279.936 216.511 279.936Z" fill="#3F3D56"/>
<path d="M128.466 282.869H126.106C125.948 282.869 125.82 282.997 125.82 283.155V284.342C125.82 284.5 125.948 284.628 126.106 284.628H128.466C128.624 284.628 128.752 284.5 128.752 284.342V283.155C128.752 282.997 128.624 282.869 128.466 282.869Z" fill="#3F3D56"/>
<path d="M134.331 282.869H131.971C131.813 282.869 131.685 282.997 131.685 283.155V284.342C131.685 284.5 131.813 284.628 131.971 284.628H134.331C134.489 284.628 134.618 284.5 134.618 284.342V283.155C134.618 282.997 134.489 282.869 134.331 282.869Z" fill="#3F3D56"/>
<path d="M140.196 282.869H137.836C137.678 282.869 137.55 282.997 137.55 283.155V284.342C137.55 284.5 137.678 284.628 137.836 284.628H140.196C140.354 284.628 140.483 284.5 140.483 284.342V283.155C140.483 282.997 140.354 282.869 140.196 282.869Z" fill="#3F3D56"/>
<path d="M146.061 282.869H143.701C143.543 282.869 143.415 282.997 143.415 283.155V284.342C143.415 284.5 143.543 284.628 143.701 284.628H146.061C146.219 284.628 146.348 284.5 146.348 284.342V283.155C146.348 282.997 146.219 282.869 146.061 282.869Z" fill="#3F3D56"/>
<path d="M151.926 282.869H149.566C149.408 282.869 149.28 282.997 149.28 283.155V284.342C149.28 284.5 149.408 284.628 149.566 284.628H151.926C152.084 284.628 152.213 284.5 152.213 284.342V283.155C152.213 282.997 152.084 282.869 151.926 282.869Z" fill="#3F3D56"/>
<path d="M157.791 282.869H155.432C155.273 282.869 155.145 282.997 155.145 283.155V284.342C155.145 284.5 155.273 284.628 155.432 284.628H157.791C157.95 284.628 158.078 284.5 158.078 284.342V283.155C158.078 282.997 157.95 282.869 157.791 282.869Z" fill="#3F3D56"/>
<path d="M163.656 282.869H161.297C161.138 282.869 161.01 282.997 161.01 283.155V284.342C161.01 284.5 161.138 284.628 161.297 284.628H163.656C163.815 284.628 163.943 284.5 163.943 284.342V283.155C163.943 282.997 163.815 282.869 163.656 282.869Z" fill="#3F3D56"/>
<path d="M169.522 282.869H167.162C167.003 282.869 166.875 282.997 166.875 283.155V284.342C166.875 284.5 167.003 284.628 167.162 284.628H169.522C169.68 284.628 169.808 284.5 169.808 284.342V283.155C169.808 282.997 169.68 282.869 169.522 282.869Z" fill="#3F3D56"/>
<path d="M175.387 282.869H173.027C172.869 282.869 172.74 282.997 172.74 283.155V284.342C172.74 284.5 172.869 284.628 173.027 284.628H175.387C175.545 284.628 175.673 284.5 175.673 284.342V283.155C175.673 282.997 175.545 282.869 175.387 282.869Z" fill="#3F3D56"/>
<path d="M181.252 282.869H178.892C178.734 282.869 178.605 282.997 178.605 283.155V284.342C178.605 284.5 178.734 284.628 178.892 284.628H181.252C181.41 284.628 181.538 284.5 181.538 284.342V283.155C181.538 282.997 181.41 282.869 181.252 282.869Z" fill="#3F3D56"/>
<path d="M187.117 282.869H184.757C184.599 282.869 184.47 282.997 184.47 283.155V284.342C184.47 284.5 184.599 284.628 184.757 284.628H187.117C187.275 284.628 187.403 284.5 187.403 284.342V283.155C187.403 282.997 187.275 282.869 187.117 282.869Z" fill="#3F3D56"/>
<path d="M192.982 282.869H190.622C190.464 282.869 190.336 282.997 190.336 283.155V284.342C190.336 284.5 190.464 284.628 190.622 284.628H192.982C193.14 284.628 193.268 284.5 193.268 284.342V283.155C193.268 282.997 193.14 282.869 192.982 282.869Z" fill="#3F3D56"/>
<path d="M198.847 282.869H196.487C196.329 282.869 196.201 282.997 196.201 283.155V284.342C196.201 284.5 196.329 284.628 196.487 284.628H198.847C199.005 284.628 199.133 284.5 199.133 284.342V283.155C199.133 282.997 199.005 282.869 198.847 282.869Z" fill="#3F3D56"/>
<path d="M204.712 282.869H202.352C202.194 282.869 202.066 282.997 202.066 283.155V284.342C202.066 284.5 202.194 284.628 202.352 284.628H204.712C204.87 284.628 204.998 284.5 204.998 284.342V283.155C204.998 282.997 204.87 282.869 204.712 282.869Z" fill="#3F3D56"/>
<path d="M210.577 282.869H208.217C208.059 282.869 207.931 282.997 207.931 283.155V284.342C207.931 284.5 208.059 284.628 208.217 284.628H210.577C210.735 284.628 210.863 284.5 210.863 284.342V283.155C210.863 282.997 210.735 282.869 210.577 282.869Z" fill="#3F3D56"/>
<path d="M216.442 282.869H214.082C213.924 282.869 213.796 282.997 213.796 283.155V284.342C213.796 284.5 213.924 284.628 214.082 284.628H216.442C216.6 284.628 216.728 284.5 216.728 284.342V283.155C216.728 282.997 216.6 282.869 216.442 282.869Z" fill="#3F3D56"/>
<path d="M177.146 286.388H154.258C154.1 286.388 153.972 286.516 153.972 286.674V287.861C153.972 288.019 154.1 288.148 154.258 288.148H177.146C177.304 288.148 177.432 288.019 177.432 287.861V286.674C177.432 286.516 177.304 286.388 177.146 286.388Z" fill="#3F3D56"/>
<path d="M242.079 144.677H92.3304C92.1748 144.674 92.0266 144.609 91.9177 144.498C91.8088 144.387 91.7479 144.237 91.7479 144.082C91.7479 143.926 91.8088 143.776 91.9177 143.665C92.0266 143.554 92.1748 143.49 92.3304 143.486H242.079C242.235 143.49 242.383 143.554 242.492 143.665C242.6 143.776 242.661 143.926 242.661 144.082C242.661 144.237 242.6 144.387 242.492 144.498C242.383 144.609 242.235 144.674 242.079 144.677Z" fill="#3F3D56"/>
<path d="M102.524 140.446C104.451 140.446 106.014 138.848 106.014 136.878C106.014 134.907 104.451 133.31 102.524 133.31C100.597 133.31 99.0341 134.907 99.0341 136.878C99.0341 138.848 100.597 140.446 102.524 140.446Z" fill="#3F3D56"/>
<path d="M114.58 140.446C116.508 140.446 118.07 138.848 118.07 136.878C118.07 134.907 116.508 133.31 114.58 133.31C112.653 133.31 111.09 134.907 111.09 136.878C111.09 138.848 112.653 140.446 114.58 140.446Z" fill="#3F3D56"/>
<path d="M126.636 140.446C128.564 140.446 130.126 138.848 130.126 136.878C130.126 134.907 128.564 133.31 126.636 133.31C124.709 133.31 123.146 134.907 123.146 136.878C123.146 138.848 124.709 140.446 126.636 140.446Z" fill="#3F3D56"/>
<path d="M234.819 134.192H226.256C226.087 134.196 225.926 134.266 225.807 134.387C225.689 134.509 225.623 134.671 225.623 134.84C225.623 135.01 225.689 135.172 225.807 135.293C225.926 135.415 226.087 135.485 226.256 135.489H234.819C234.989 135.486 235.152 135.417 235.271 135.296C235.391 135.174 235.458 135.011 235.458 134.84C235.458 134.67 235.391 134.507 235.271 134.385C235.152 134.264 234.989 134.195 234.819 134.192Z" fill="#3F3D56"/>
<path d="M234.819 136.626H226.256C226.087 136.63 225.925 136.7 225.807 136.821C225.689 136.942 225.622 137.105 225.622 137.274C225.622 137.444 225.689 137.607 225.807 137.728C225.925 137.849 226.087 137.919 226.256 137.923H234.819C234.99 137.921 235.152 137.851 235.272 137.73C235.392 137.609 235.459 137.445 235.459 137.274C235.459 137.104 235.392 136.94 235.272 136.819C235.152 136.698 234.99 136.628 234.819 136.626Z" fill="#3F3D56"/>
<path d="M234.819 139.06H226.256C226.087 139.064 225.926 139.134 225.807 139.255C225.689 139.377 225.623 139.539 225.623 139.708C225.623 139.878 225.689 140.04 225.807 140.161C225.926 140.283 226.087 140.353 226.256 140.357H234.819C234.989 140.354 235.152 140.285 235.271 140.164C235.391 140.042 235.458 139.879 235.458 139.708C235.458 139.538 235.391 139.375 235.271 139.253C235.152 139.132 234.989 139.063 234.819 139.06Z" fill="#3F3D56"/>
<path d="M105.243 158.517H102.166C101.233 158.517 100.477 159.273 100.477 160.206C100.477 161.139 101.233 161.895 102.166 161.895H105.243C106.176 161.895 106.932 161.139 106.932 160.206C106.932 159.273 106.176 158.517 105.243 158.517Z" fill="#E6E6E6"/>
<path d="M140.433 158.517H137.356C136.423 158.517 135.667 159.273 135.667 160.206C135.667 161.139 136.423 161.895 137.356 161.895H140.433C141.366 161.895 142.122 161.139 142.122 160.206C142.122 159.273 141.366 158.517 140.433 158.517Z" fill="#E6E6E6"/>
<path d="M150.404 158.517H147.327C146.394 158.517 145.638 159.273 145.638 160.206C145.638 161.139 146.394 161.895 147.327 161.895H150.404C151.336 161.895 152.093 161.139 152.093 160.206C152.093 159.273 151.336 158.517 150.404 158.517Z" fill="#E6E6E6"/>
<path d="M130.861 158.235H111.738C110.805 158.235 110.048 158.991 110.048 159.924C110.048 160.857 110.805 161.613 111.738 161.613H130.861C131.794 161.613 132.55 160.857 132.55 159.924C132.55 158.991 131.794 158.235 130.861 158.235Z" fill="#E6E6E6"/>
<path d="M177.781 158.235H158.658C157.725 158.235 156.969 158.991 156.969 159.924C156.969 160.857 157.725 161.613 158.658 161.613H177.781C178.714 161.613 179.471 160.857 179.471 159.924C179.471 158.991 178.714 158.235 177.781 158.235Z" fill="#E6E6E6"/>
<path d="M114.627 166.141H111.55C110.617 166.141 109.861 166.897 109.861 167.83C109.861 168.763 110.617 169.519 111.55 169.519H114.627C115.56 169.519 116.316 168.763 116.316 167.83C116.316 166.897 115.56 166.141 114.627 166.141Z" fill="#E6E6E6"/>
<path d="M149.817 166.141H146.74C145.807 166.141 145.051 166.897 145.051 167.83C145.051 168.763 145.807 169.519 146.74 169.519H149.817C150.75 169.519 151.506 168.763 151.506 167.83C151.506 166.897 150.75 166.141 149.817 166.141Z" fill="#E6E6E6"/>
<path d="M159.788 166.141H156.711C155.778 166.141 155.022 166.897 155.022 167.83C155.022 168.763 155.778 169.519 156.711 169.519H159.788C160.72 169.519 161.477 168.763 161.477 167.83C161.477 166.897 160.72 166.141 159.788 166.141Z" fill="#E6E6E6"/>
<path d="M140.245 165.86H121.122C120.189 165.86 119.433 166.616 119.433 167.549C119.433 168.482 120.189 169.238 121.122 169.238H140.245C141.178 169.238 141.934 168.482 141.934 167.549C141.934 166.616 141.178 165.86 140.245 165.86Z" fill="#E6E6E6"/>
<path d="M187.166 165.86H168.042C167.109 165.86 166.353 166.616 166.353 167.549C166.353 168.482 167.109 169.238 168.042 169.238H187.166C188.098 169.238 188.855 168.482 188.855 167.549C188.855 166.616 188.098 165.86 187.166 165.86Z" fill="#E6E6E6"/>
<path d="M124.011 173.766H120.934C120.001 173.766 119.245 174.522 119.245 175.455C119.245 176.388 120.001 177.144 120.934 177.144H124.011C124.944 177.144 125.7 176.388 125.7 175.455C125.7 174.522 124.944 173.766 124.011 173.766Z" fill="#E6E6E6"/>
<path d="M159.201 173.766H156.124C155.191 173.766 154.435 174.522 154.435 175.455C154.435 176.388 155.191 177.144 156.124 177.144H159.201C160.134 177.144 160.89 176.388 160.89 175.455C160.89 174.522 160.134 173.766 159.201 173.766Z" fill="#E6E6E6"/>
<path d="M169.172 173.766H166.095C165.162 173.766 164.406 174.522 164.406 175.455C164.406 176.388 165.162 177.144 166.095 177.144H169.172C170.105 177.144 170.861 176.388 170.861 175.455C170.861 174.522 170.105 173.766 169.172 173.766Z" fill="#E6E6E6"/>
<path d="M149.629 173.484H130.506C129.573 173.484 128.817 174.24 128.817 175.173C128.817 176.106 129.573 176.862 130.506 176.862H149.629C150.562 176.862 151.318 176.106 151.318 175.173C151.318 174.24 150.562 173.484 149.629 173.484Z" fill="#E6E6E6"/>
<path d="M196.55 173.484H177.426C176.493 173.484 175.737 174.24 175.737 175.173C175.737 176.106 176.493 176.862 177.426 176.862H196.55C197.482 176.862 198.239 176.106 198.239 175.173C198.239 174.24 197.482 173.484 196.55 173.484Z" fill="#E6E6E6"/>
<path d="M133.395 181.39H130.318C129.385 181.39 128.629 182.147 128.629 183.079C128.629 184.012 129.385 184.769 130.318 184.769H133.395C134.328 184.769 135.084 184.012 135.084 183.079C135.084 182.147 134.328 181.39 133.395 181.39Z" fill="#E6E6E6"/>
<path d="M168.585 181.39H165.508C164.575 181.39 163.819 182.147 163.819 183.079C163.819 184.012 164.575 184.769 165.508 184.769H168.585C169.518 184.769 170.274 184.012 170.274 183.079C170.274 182.147 169.518 181.39 168.585 181.39Z" fill="#E6E6E6"/>
<path d="M178.556 181.39H175.479C174.546 181.39 173.79 182.147 173.79 183.079C173.79 184.012 174.546 184.769 175.479 184.769H178.556C179.489 184.769 180.245 184.012 180.245 183.079C180.245 182.147 179.489 181.39 178.556 181.39Z" fill="#E6E6E6"/>
<path d="M159.013 181.109H139.89C138.957 181.109 138.201 181.865 138.201 182.798C138.201 183.731 138.957 184.487 139.89 184.487H159.013C159.946 184.487 160.702 183.731 160.702 182.798C160.702 181.865 159.946 181.109 159.013 181.109Z" fill="#E6E6E6"/>
<path d="M140.433 211.709H137.356C136.423 211.709 135.667 212.465 135.667 213.398C135.667 214.331 136.423 215.087 137.356 215.087H140.433C141.366 215.087 142.122 214.331 142.122 213.398C142.122 212.465 141.366 211.709 140.433 211.709Z" fill="#E6E6E6"/>
<path d="M150.404 211.709H147.327C146.394 211.709 145.638 212.465 145.638 213.398C145.638 214.331 146.394 215.087 147.327 215.087H150.404C151.336 215.087 152.093 214.331 152.093 213.398C152.093 212.465 151.336 211.709 150.404 211.709Z" fill="#E6E6E6"/>
<path d="M177.781 211.991H158.658C157.725 211.991 156.969 212.747 156.969 213.68C156.969 214.612 157.725 215.369 158.658 215.369H177.781C178.714 215.369 179.471 214.612 179.471 213.68C179.471 212.747 178.714 211.991 177.781 211.991Z" fill="#E6E6E6"/>
<path d="M105.243 211.709H102.166C101.233 211.709 100.477 212.465 100.477 213.398C100.477 214.331 101.233 215.087 102.166 215.087H105.243C106.176 215.087 106.932 214.331 106.932 213.398C106.932 212.465 106.176 211.709 105.243 211.709Z" fill="#E6E6E6"/>
<path d="M130.861 211.991H111.738C110.805 211.991 110.048 212.747 110.048 213.68C110.048 214.612 110.805 215.369 111.738 215.369H130.861C131.794 215.369 132.55 214.612 132.55 213.68C132.55 212.747 131.794 211.991 130.861 211.991Z" fill="#E6E6E6"/>
<path d="M114.627 204.084H111.55C110.617 204.084 109.861 204.841 109.861 205.773C109.861 206.706 110.617 207.463 111.55 207.463H114.627C115.56 207.463 116.316 206.706 116.316 205.773C116.316 204.841 115.56 204.084 114.627 204.084Z" fill="#E6E6E6"/>
<path d="M149.817 204.084H146.74C145.807 204.084 145.051 204.841 145.051 205.773C145.051 206.706 145.807 207.463 146.74 207.463H149.817C150.75 207.463 151.506 206.706 151.506 205.773C151.506 204.841 150.75 204.084 149.817 204.084Z" fill="#E6E6E6"/>
<path d="M159.788 204.084H156.711C155.778 204.084 155.022 204.841 155.022 205.773C155.022 206.706 155.778 207.463 156.711 207.463H159.788C160.72 207.463 161.477 206.706 161.477 205.773C161.477 204.841 160.72 204.084 159.788 204.084Z" fill="#E6E6E6"/>
<path d="M140.245 204.366H121.122C120.189 204.366 119.433 205.122 119.433 206.055C119.433 206.988 120.189 207.744 121.122 207.744H140.245C141.178 207.744 141.934 206.988 141.934 206.055C141.934 205.122 141.178 204.366 140.245 204.366Z" fill="#E6E6E6"/>
<path d="M124.011 196.46H120.934C120.001 196.46 119.245 197.216 119.245 198.149C119.245 199.082 120.001 199.838 120.934 199.838H124.011C124.944 199.838 125.7 199.082 125.7 198.149C125.7 197.216 124.944 196.46 124.011 196.46Z" fill="#E6E6E6"/>
<path d="M159.201 196.46H156.124C155.191 196.46 154.435 197.216 154.435 198.149C154.435 199.082 155.191 199.838 156.124 199.838H159.201C160.134 199.838 160.89 199.082 160.89 198.149C160.89 197.216 160.134 196.46 159.201 196.46Z" fill="#E6E6E6"/>
<path d="M169.172 196.46H166.095C165.162 196.46 164.406 197.216 164.406 198.149C164.406 199.082 165.162 199.838 166.095 199.838H169.172C170.105 199.838 170.861 199.082 170.861 198.149C170.861 197.216 170.105 196.46 169.172 196.46Z" fill="#E6E6E6"/>
<path d="M149.629 196.741H130.506C129.573 196.741 128.817 197.498 128.817 198.431C128.817 199.363 129.573 200.12 130.506 200.12H149.629C150.562 200.12 151.318 199.363 151.318 198.431C151.318 197.498 150.562 196.741 149.629 196.741Z" fill="#E6E6E6"/>
<path d="M133.395 188.835H130.318C129.385 188.835 128.629 189.591 128.629 190.524C128.629 191.457 129.385 192.213 130.318 192.213H133.395C134.328 192.213 135.084 191.457 135.084 190.524C135.084 189.591 134.328 188.835 133.395 188.835Z" fill="#E6E6E6"/>
<path d="M168.585 188.835H165.508C164.575 188.835 163.819 189.591 163.819 190.524C163.819 191.457 164.575 192.213 165.508 192.213H168.585C169.518 192.213 170.274 191.457 170.274 190.524C170.274 189.591 169.518 188.835 168.585 188.835Z" fill="#E6E6E6"/>
<path d="M178.556 188.835H175.479C174.546 188.835 173.79 189.591 173.79 190.524C173.79 191.457 174.546 192.213 175.479 192.213H178.556C179.489 192.213 180.245 191.457 180.245 190.524C180.245 189.591 179.489 188.835 178.556 188.835Z" fill="#E6E6E6"/>
<path d="M159.013 189.117H139.89C138.957 189.117 138.201 189.873 138.201 190.806C138.201 191.739 138.957 192.495 139.89 192.495H159.013C159.946 192.495 160.702 191.739 160.702 190.806C160.702 189.873 159.946 189.117 159.013 189.117Z" fill="#E6E6E6"/>
<path d="M243.875 321.856C243.517 322.038 243.153 322.22 242.796 322.396C233.529 327.029 226.115 329.663 215.975 332.548C215.118 322.988 214.291 306.185 213.488 295.769C213.277 293.065 213.066 290.795 212.86 289.194C212.809 288.343 212.635 287.503 212.344 286.701L212.379 289.194L212.467 295.769L212.978 333.37C200.363 336.707 187.405 338.575 174.362 338.935C173.682 338.953 173.013 338.965 172.368 338.977C172.139 338.982 171.916 338.988 171.694 338.988C170.96 338.994 170.233 339 169.5 339C155.755 339.01 142.059 337.35 128.714 334.056C129.002 324.595 129.289 307.98 129.565 295.769C129.623 293.382 129.676 291.159 129.735 289.194C129.846 284.995 129.964 281.968 130.075 280.954C129.976 281.133 129.9 281.324 129.846 281.522C129.303 284.052 128.933 286.615 128.738 289.194C128.533 291.159 128.327 293.382 128.122 295.769C127.031 308.455 125.893 325.704 124.72 333.018C117.738 331.112 110.887 328.755 104.21 325.962C100.691 324.496 97.2347 322.914 93.8408 321.217C94.486 316.994 95.1605 312.261 95.8525 307.352C96.3921 303.546 96.9493 299.634 97.5182 295.769C98.398 289.798 99.3012 283.945 100.216 278.789C101.553 271.259 102.926 265.206 104.286 262.426C105.577 259.787 106.867 257.183 108.116 254.69C108.55 253.816 108.984 252.954 109.407 252.115C109.506 251.916 109.606 251.722 109.706 251.529C110.603 249.763 111.471 248.074 112.298 246.491C113.008 245.136 113.682 243.857 114.322 242.678C115.87 239.816 117.184 237.535 118.157 236.092C122.228 229.918 128.287 225.321 135.33 223.066L135.506 223.019L135.629 223.071L147.623 219.388L149.377 218.849L150.556 218.485L154.708 215.324L156.966 213.605L159.084 211.992L163.224 208.843L188.861 210.42L193.852 222.438L205.03 226.526L205.224 226.438L205.394 226.368L205.57 226.414C212.612 228.672 218.671 233.268 222.743 239.441C223.294 240.268 223.963 241.359 224.719 242.678C225.365 243.798 226.068 245.077 226.831 246.491C227.916 248.502 229.101 250.772 230.356 253.229C230.631 253.769 230.913 254.32 231.194 254.878C231.716 255.91 232.246 256.964 232.784 258.039C234.033 260.531 235.323 263.136 236.614 265.781C237.734 268.074 238.866 272.789 239.98 278.789C240.901 283.775 241.816 289.651 242.702 295.769C243.863 303.698 242.625 313.194 243.675 320.49C243.74 320.953 243.81 321.405 243.875 321.856Z" fill="#3F3D56"/>
<path d="M169.861 199.25C186.328 199.25 199.677 185.901 199.677 169.434C199.677 152.968 186.328 139.619 169.861 139.619C153.394 139.619 140.045 152.968 140.045 169.434C140.045 185.901 153.394 199.25 169.861 199.25Z" fill="#A0616A"/>
<path d="M219.03 129.923C218.441 128.547 217.657 127.263 216.702 126.11C212.174 120.58 203.94 118.146 195.488 124.691C193.861 124.328 192.165 124.425 190.591 124.973C189.847 125.242 189.151 125.626 188.526 126.11C187.246 127.109 186.248 128.422 185.629 129.923C185.298 130.715 185.081 131.55 184.984 132.404C182.895 131.318 180.683 130.485 178.397 129.923C172.788 128.527 166.922 128.527 161.312 129.923C159.515 130.377 157.784 131.063 156.163 131.964C153.418 133.547 151.84 135.547 151.559 137.77C147.6 137.993 143.483 140.075 140.415 143.488C140.069 143.87 139.735 144.269 139.424 144.679C136.844 148.054 135.458 152.19 135.483 156.439V157.183H136.228C138.268 157.181 140.29 157.576 142.181 158.345C143.406 158.837 144.566 159.477 145.635 160.251C146.335 160.747 146.995 161.296 147.612 161.893C149.04 163.276 150.25 164.868 151.201 166.614C153.638 171.028 154.483 176.145 153.594 181.107C153.39 182.256 153.092 183.386 152.702 184.485C152.148 186.054 151.418 187.555 150.527 188.96C150.491 189.013 150.462 189.066 150.427 189.119C150.034 189.746 149.659 190.385 149.307 191.031C149.043 191.512 148.796 192.004 148.568 192.497C147.899 193.868 147.334 195.287 146.878 196.743C146.062 199.318 145.581 201.987 145.447 204.684C145.406 205.4 145.395 206.116 145.418 206.831C145.453 208.675 145.655 210.513 146.022 212.321C146.075 212.567 146.128 212.808 146.181 213.054L146.609 214.925L147.623 219.388L148.327 222.461L148.978 225.312L149.94 223.934C150.268 223.464 151.095 222.022 152.204 219.981C152.937 218.649 153.788 217.06 154.708 215.324C155.993 212.89 157.4 210.174 158.779 207.464C159.336 206.368 159.887 205.277 160.421 204.209C161.43 202.186 162.38 200.233 163.195 198.497C163.946 196.896 164.585 195.476 165.06 194.339C165.207 195.083 165.33 195.84 165.424 196.602C165.529 197.377 165.606 198.163 165.647 198.948C165.658 199.066 165.664 199.189 165.67 199.306L165.694 199.787L165.699 199.928L166.321 200.01C169.907 200.394 173.522 200.422 177.113 200.092H177.119C181.876 199.734 186.543 198.603 190.937 196.743C193.432 195.661 195.762 194.231 197.857 192.497C198.837 191.686 199.751 190.8 200.591 189.846C200.802 189.605 201.007 189.365 201.206 189.119C202.367 187.692 203.361 186.138 204.168 184.485C204.709 183.395 205.168 182.266 205.541 181.107C207.793 174.286 207.664 165.776 205.154 155.664C205.832 155.534 206.481 155.284 207.071 154.925C208.913 153.817 210.192 151.618 210.591 148.931L211.224 149.101C213.469 148.055 215.47 146.549 217.095 144.679C217.417 144.298 217.718 143.901 217.998 143.489C220.866 139.266 220.89 134.198 219.03 129.923Z" fill="#2F2E41"/>
<path opacity="0.2" d="M121.008 278.764L125.991 259.531L130.392 276.127L121.008 278.764Z" fill="black"/>
<path d="M253.622 266.232C251.839 290.795 253.687 301.61 243.845 321.862C234.891 326.245 225.564 329.821 215.975 332.548C214.978 332.83 213.979 333.104 212.978 333.37C200.363 336.707 187.405 338.575 174.362 338.935C173.682 338.953 173.013 338.965 172.368 338.977C172.139 338.982 171.916 338.988 171.694 338.988C170.96 338.994 170.233 339 169.5 339C155.755 339.01 142.059 337.35 128.714 334.056C127.377 333.727 126.046 333.381 124.72 333.018C117.738 331.112 110.887 328.755 104.21 325.962C100.691 324.496 97.2347 322.914 93.8408 321.217C93.0725 320.83 92.3042 320.443 91.5476 320.044C87.6591 313.205 85.4479 304.889 85.401 294.895C88.0931 277.675 247.675 251.382 253.622 266.232Z" fill="#2F2E41"/>
<path opacity="0.2" d="M253.618 270.439C253.709 268.918 253.811 267.347 253.929 265.712C247.982 250.861 88.4001 277.154 85.708 294.374C85.7154 295.953 85.7829 297.485 85.8964 298.981C92.4158 281.985 244.021 256.995 253.618 270.439Z" fill="black"/>
<path d="M95.6564 200.674C95.6952 200.142 95.6198 199.608 95.435 199.108C95.2502 198.608 94.9604 198.153 94.5852 197.774C94.2099 197.396 93.7579 197.102 93.2595 196.912C92.7611 196.723 92.2279 196.642 91.6959 196.676C91.4976 196.684 91.3004 196.708 91.1064 196.75L67.7857 202.018C67.2646 202.145 66.7757 202.379 66.3506 202.706C65.9254 203.032 65.5734 203.445 65.3173 203.916C64.9753 203.929 64.6356 203.978 64.3041 204.063C63.5784 204.228 62.8922 204.533 62.2847 204.963C61.6772 205.393 61.1602 205.938 60.7634 206.567C60.3665 207.197 60.0976 207.898 59.9718 208.632C59.8461 209.365 59.866 210.116 60.0305 210.842C60.195 211.568 60.5008 212.254 60.9305 212.861C61.3602 213.469 61.9053 213.986 62.5348 214.383C63.8061 215.184 65.3437 215.448 66.8093 215.116C67.6436 214.922 68.424 214.544 69.0935 214.01L76.9961 236.263C77.3908 236.96 78.0007 237.511 78.7344 237.833C79.4682 238.155 80.2865 238.231 81.067 238.049L96.2274 234.623C97.0019 234.442 97.699 234.02 98.2186 233.417C98.7382 232.815 99.0536 232.063 99.1194 231.271L95.6564 200.674ZM66.4593 213.531C65.4126 213.768 64.3149 213.579 63.407 213.007C62.4991 212.435 61.8551 211.526 61.6161 210.48C61.3772 209.434 61.5628 208.336 62.1323 207.427C62.7018 206.517 63.6087 205.871 64.6541 205.629C64.7278 205.61 64.8015 205.629 64.8752 205.61C64.8696 206.282 65.0412 206.942 65.3726 207.526L68.2646 212.573C67.7611 213.051 67.137 213.382 66.4593 213.531Z" fill="#2F2E41"/>
<path d="M91.6959 196.676C91.9169 199.624 86.8696 203.013 80.1092 204.358C73.9013 205.629 68.3383 204.745 66.7725 202.424C67.0872 202.237 67.429 202.1 67.7857 202.018L91.1064 196.75C91.3004 196.708 91.4976 196.684 91.6959 196.676Z" fill="#3F3D56"/>
<path d="M75.5673 271.496L88.6661 264.947L77.7504 235.475L74.8736 220.611C74.4999 218.68 73.6259 216.881 72.339 215.394C71.0521 213.906 69.3974 212.783 67.5402 212.135C65.683 211.488 63.6884 211.339 61.7557 211.704C59.8229 212.068 58.0198 212.934 56.5265 214.214C54.3135 216.111 52.924 218.793 52.6513 221.695C52.3785 224.597 53.2438 227.491 55.0646 229.767L65.7432 243.116L75.5673 271.496Z" fill="#A0616A"/>
<path d="M88.6661 259.489L71.201 268.222L84.4552 309.751C85.407 312.734 87.1132 315.419 89.4084 317.548C91.7036 319.677 94.5099 321.177 97.5552 321.902C101.31 322.796 105.252 322.471 108.81 320.974C112.368 319.476 115.356 316.885 117.342 313.575L152.489 253.333C154.979 249.182 155.748 244.221 154.631 239.511C153.513 234.801 150.599 230.714 146.509 228.124C144.309 226.731 141.841 225.816 139.265 225.44C136.688 225.064 134.062 225.235 131.556 225.941C129.05 226.647 126.72 227.873 124.719 229.539C122.719 231.205 121.091 233.274 119.942 235.61L98.4904 281.321L88.6661 259.489Z" fill="#3F3D56"/>
<path d="M83.2643 221.958C83.2318 221.958 83.1996 221.952 83.1689 221.942L79.3558 220.629C79.3097 220.613 79.2683 220.586 79.2353 220.55C79.2023 220.515 79.1787 220.471 79.1668 220.424C79.1548 220.377 79.1548 220.327 79.1667 220.28C79.1787 220.233 79.2022 220.189 79.2352 220.154L82.0712 217.066C82.0972 217.037 82.1286 217.014 82.1635 216.998C82.1984 216.981 82.2363 216.972 82.2748 216.97C82.3134 216.969 82.3519 216.975 82.3882 216.988C82.4245 217.001 82.4578 217.021 82.4862 217.047C82.5147 217.073 82.5377 217.105 82.5539 217.14C82.5701 217.175 82.5793 217.213 82.5809 217.251C82.5825 217.29 82.5764 217.328 82.563 217.364C82.5497 217.401 82.5293 217.434 82.5031 217.462L79.9701 220.22L83.3596 221.387C83.4253 221.41 83.4807 221.455 83.5162 221.515C83.5517 221.574 83.5649 221.645 83.5535 221.713C83.5421 221.781 83.5067 221.844 83.4538 221.888C83.4008 221.933 83.3337 221.958 83.2643 221.958Z" fill="#730071"/>
<path d="M88.491 220.888C88.4326 220.888 88.3755 220.871 88.3271 220.838C88.2786 220.805 88.241 220.759 88.2191 220.705C88.1972 220.651 88.192 220.591 88.2041 220.534C88.2162 220.477 88.2451 220.425 88.2871 220.384L90.8645 217.892L87.4022 216.465C87.3665 216.45 87.3341 216.429 87.3068 216.402C87.2794 216.375 87.2577 216.342 87.2429 216.307C87.228 216.271 87.2204 216.233 87.2203 216.195C87.2202 216.156 87.2277 216.118 87.2424 216.082C87.2571 216.047 87.2786 216.014 87.3059 215.987C87.3331 215.96 87.3654 215.938 87.401 215.923C87.4366 215.909 87.4747 215.901 87.5133 215.901C87.5518 215.901 87.59 215.909 87.6256 215.923L91.502 217.521C91.547 217.539 91.5867 217.569 91.6175 217.606C91.6483 217.644 91.6692 217.689 91.6784 217.737C91.6876 217.784 91.6847 217.834 91.67 217.88C91.6553 217.927 91.6292 217.969 91.5942 218.002L88.6949 220.805C88.6402 220.858 88.5671 220.888 88.491 220.888Z" fill="#730071"/>
<path d="M84.0647 223.752C84.0354 223.752 84.0064 223.747 83.9785 223.739C83.9416 223.727 83.9074 223.709 83.8777 223.684C83.848 223.66 83.8234 223.63 83.8054 223.596C83.7874 223.561 83.7762 223.524 83.7726 223.486C83.769 223.448 83.773 223.409 83.7843 223.372L86.4909 214.574C86.514 214.5 86.5656 214.438 86.6343 214.402C86.703 214.366 86.7832 214.359 86.8574 214.382C86.9316 214.404 86.9937 214.456 87.0301 214.524C87.0665 214.593 87.0742 214.673 87.0516 214.747L84.345 223.545C84.3265 223.605 84.2893 223.657 84.2389 223.694C84.1884 223.732 84.1274 223.752 84.0647 223.752Z" fill="#730071"/>
</g>
<defs>
<clipPath id="clip0_80_2">
<rect width="339" height="339" fill="white"/>
</clipPath>
</defs>
</svg>
