<svg width="86" height="86" viewBox="0 0 86 86" fill="none" xmlns="http://www.w3.org/2000/svg">
<path d="M84.3807 39.1701L46.8313 1.62354C46.3169 1.10884 45.7061 0.700531 45.0339 0.421957C44.3617 0.143384 43.6411 0 42.9135 0C42.1858 0 41.4653 0.143384 40.793 0.421957C40.1208 0.700531 39.5101 1.10884 38.9957 1.62354L31.2013 9.42169L41.0903 19.3107C42.2529 18.9158 43.5028 18.8542 44.6987 19.1327C45.8945 19.4113 46.9885 20.0189 47.857 20.8868C48.7304 21.761 49.34 22.8634 49.6163 24.0678C49.8925 25.2722 49.8242 26.5301 49.4191 27.6975L58.9534 37.229C60.1211 36.8234 61.3795 36.7551 62.5843 37.0319C63.789 37.3087 64.8914 37.9193 65.7651 38.7939C66.377 39.4057 66.8625 40.1322 67.1937 40.9316C67.5249 41.7311 67.6954 42.588 67.6954 43.4534C67.6954 44.3188 67.5249 45.1757 67.1937 45.9752C66.8625 46.7747 66.377 47.5011 65.7651 48.1129C64.5278 49.3488 62.8506 50.0431 61.1018 50.0431C59.353 50.0431 57.6758 49.3488 56.4386 48.1129C55.5195 47.1923 54.8933 46.0204 54.6388 44.7447C54.3843 43.469 54.5129 42.1465 55.0085 40.9437L46.1171 32.0552V55.4506C47.0556 55.9142 47.8701 56.5947 48.4932 57.4357C49.1163 58.2768 49.5301 59.2542 49.7003 60.287C49.8704 61.3198 49.7921 62.3783 49.4717 63.3748C49.1513 64.3713 48.5981 65.2771 47.858 66.0172C47.2461 66.6292 46.5197 67.1146 45.7202 67.4458C44.9207 67.777 44.0638 67.9475 43.1985 67.9475C42.3331 67.9475 41.4762 67.777 40.6767 67.4458C39.8772 67.1146 39.1508 66.6292 38.5389 66.0172C37.9268 65.4053 37.4413 64.6789 37.11 63.8793C36.7787 63.0797 36.6082 62.2227 36.6082 61.3572C36.6082 60.4917 36.7787 59.6347 37.11 58.8352C37.4413 58.0356 37.9268 57.3091 38.5389 56.6972C39.1555 56.0794 39.8884 55.5898 40.6953 55.2569V31.6462C39.8918 31.3152 39.1615 30.8287 38.5465 30.2147C37.9315 29.6006 37.4439 28.8711 37.1117 28.068C36.7794 27.265 36.6092 26.4042 36.6106 25.5351C36.6121 24.666 36.7852 23.8058 37.1201 23.0039L27.3696 13.2515L1.62036 38.9942C0.582752 40.0338 0 41.4427 0 42.9115C0 44.3803 0.582752 45.7892 1.62036 46.8288L39.1716 84.3801C40.2112 85.4174 41.6199 86 43.0885 86C44.5571 86 45.9657 85.4174 47.0053 84.3801L84.3807 47.0048C85.4183 45.9651 86.001 44.5563 86.001 43.0875C86.001 41.6186 85.4183 40.2098 84.3807 39.1701Z" fill="#FDF0D5"/>
</svg>
